<?xml version="1.0" encoding="UTF-8" standalone="no"?>
<svg
   inkscape:version="1.1 (ce6663b3b7, 2021-05-25)"
   sodipodi:docname="muv.svg"
   viewBox="0 0 1027.9645 480.63318"
   height="480.63318"
   width="1027.9645"
   xml:space="preserve"
   id="svg112"
   version="1.1"
   inkscape:export-filename="/home/viniciusrv/Documentos/MuvBox/muvbox-control/res/muv.png"
   inkscape:export-xdpi="96"
   inkscape:export-ydpi="96"
   xmlns:inkscape="http://www.inkscape.org/namespaces/inkscape"
   xmlns:sodipodi="http://sodipodi.sourceforge.net/DTD/sodipodi-0.dtd"
   xmlns="http://www.w3.org/2000/svg"
   xmlns:svg="http://www.w3.org/2000/svg"
   xmlns:rdf="http://www.w3.org/1999/02/22-rdf-syntax-ns#"
   xmlns:cc="http://creativecommons.org/ns#"
   xmlns:dc="http://purl.org/dc/elements/1.1/"><metadata
     id="metadata118"><rdf:RDF><cc:Work
         rdf:about=""><dc:format>image/svg+xml</dc:format><dc:type
           rdf:resource="http://purl.org/dc/dcmitype/StillImage" /></cc:Work></rdf:RDF></metadata><defs
     id="defs116"><clipPath
       id="clipPath128"
       clipPathUnits="userSpaceOnUse"><path
         id="path126"
         d="M 0,0 H 841.89 V 595.276 H 0 Z" /></clipPath><clipPath
       id="clipPath152"
       clipPathUnits="userSpaceOnUse"><path
         id="path150"
         d="M 0,0 H 841.89 V 595.276 H 0 Z" /></clipPath></defs><sodipodi:namedview
     inkscape:current-layer="g120"
     inkscape:window-maximized="1"
     inkscape:window-y="31"
     inkscape:window-x="0"
     inkscape:cy="1608.6683"
     inkscape:cx="803.62798"
     inkscape:zoom="0.35401953"
     showgrid="false"
     id="namedview114"
     inkscape:window-height="1017"
     inkscape:window-width="1920"
     inkscape:pageshadow="2"
     inkscape:pageopacity="0"
     guidetolerance="10"
     gridtolerance="10"
     objecttolerance="10"
     borderopacity="1"
     bordercolor="#666666"
     pagecolor="#ffffff"
     inkscape:pagecheckerboard="0"
     fit-margin-top="0"
     fit-margin-left="0"
     fit-margin-right="0"
     fit-margin-bottom="0" /><g
     transform="matrix(1.3333333,0,0,-1.3333333,-47.999465,635.90572)"
     inkscape:label="MUV_branco"
     inkscape:groupmode="layer"
     id="g120"><g
       id="g122"><g
         clip-path="url(#clipPath128)"
         id="g124"><g
           transform="translate(112.8751,369.8973)"
           id="g130"><path
             id="path132"
             style="fill:#1e90ff;fill-opacity:1;fill-rule:nonzero;stroke:none"
             d="m 0,0 c 72.364,2.02 112.252,-20.058 157.835,-11.047 45.298,8.954 90.864,43.179 91.432,43.607 -32.758,45.112 -85.889,74.472 -145.905,74.472 -78.248,0 -144.824,-49.875 -169.738,-119.56 C -59.291,-10.115 -40.088,-1.119 0,0" /></g><g
           transform="translate(362.1728,402.4144)"
           id="g134"><path
             id="path136"
             style="fill:#1e90ff;fill-opacity:1;fill-rule:nonzero;stroke:none"
             d="m 0,0 c 0.146,-2.621 3.214,-99.984 -148.03,-84.173 -117.423,12.276 -178.143,-21.55 -178.143,-21.55 0,-99.542 80.695,-180.237 180.237,-180.237 99.543,0 180.238,80.695 180.238,180.237 C 34.302,-66.215 21.556,-29.703 0,0" /></g></g></g><text
       id="text140"
       style="font-variant:normal;font-weight:900;font-stretch:normal;font-size:205.123px;font-family:'Lato Black';-inkscape-font-specification:Lato-Black;writing-mode:lr-tb;fill:#000000;fill-opacity:1;fill-rule:nonzero;stroke:none"
       transform="matrix(1,0,0,-1,404.5211,257.2394)"><tspan
         id="tspan138"
         sodipodi:role="line"
         y="0"
         x="0 174.56001 291.48035">muv</tspan></text><text
       id="text144"
       style="font-variant:normal;font-weight:normal;font-stretch:normal;font-size:26.2275px;font-family:Lato;-inkscape-font-specification:Lato-Regular;writing-mode:lr-tb;fill:#000000;fill-opacity:1;fill-rule:nonzero;stroke:none"
       transform="matrix(1,0,0,-1,412.9911,226.6351)"><tspan
         id="tspan142"
         sodipodi:role="line"
         y="0"
         x="0 7.3436999 27.355282 42.829506 57.962776 71.41748 78.761185 97.907257 113.04053 133.05211 150.57208 157.91577 174.79317 181.50742 196.65642 220.99554 227.70978 252.0489 272.51947 290.27548 297.61917 321.95831 337.09155 357.10315 371.75122">INTELIGÊNCIA EM MOVIMENTO</tspan></text><g
       id="g146"><g
         clip-path="url(#clipPath152)"
         id="g148"><g
           transform="translate(362.2396,402.5195)"
           id="g154"><path
             id="path156"
             style="fill:#ffffff;fill-opacity:1;fill-rule:nonzero;stroke:none"
             d="m 0,0 c 0.146,-2.629 3.173,-99.78 -147.05,-84.343 -107.711,9.663 -155.983,-12.365 -168.447,-16.617 -1.391,-0.475 -10.743,-4.864 -10.743,-4.864 0,22.591 3.04,41.03 10.594,60.974 l 1.113,0.401 c 7.106,2.421 24.266,10.756 64.474,11.878 72.582,2.026 113.033,-20.073 158.754,-11.035 C -45.871,-34.625 -0.57,-0.429 0,0" /></g></g></g></g></svg>
