<?xml version="1.0" encoding="UTF-8" standalone="no"?>
<!-- Created with Inkscape (http://www.inkscape.org/) -->

<svg
   width="30.000004"
   height="28.918247"
   viewBox="0 0 7.9375008 7.6512865"
   version="1.1"
   id="svg5"
   inkscape:version="1.1 (ce6663b3b7, 2021-05-25)"
   sodipodi:docname="connect.svg"
   xmlns:inkscape="http://www.inkscape.org/namespaces/inkscape"
   xmlns:sodipodi="http://sodipodi.sourceforge.net/DTD/sodipodi-0.dtd"
   xmlns="http://www.w3.org/2000/svg"
   xmlns:svg="http://www.w3.org/2000/svg">
  <sodipodi:namedview
     id="namedview7"
     pagecolor="#363636"
     bordercolor="#eeeeee"
     borderopacity="1"
     inkscape:pageshadow="0"
     inkscape:pageopacity="0"
     inkscape:pagecheckerboard="0"
     inkscape:document-units="px"
     showgrid="false"
     units="px"
     inkscape:snap-global="false"
     fit-margin-top="0"
     fit-margin-left="0"
     fit-margin-right="0"
     fit-margin-bottom="0"
     inkscape:zoom="5.6568543"
     inkscape:rotation="1"
     inkscape:cx="47.769071"
     inkscape:cy="67.677592"
     inkscape:window-width="1920"
     inkscape:window-height="1017"
     inkscape:window-x="0"
     inkscape:window-y="31"
     inkscape:window-maximized="1"
     inkscape:current-layer="layer1" />
  <defs
     id="defs2" />
  <g
     inkscape:label="Camada 1"
     inkscape:groupmode="layer"
     id="layer1"
     transform="translate(-6.817554,-4.9878192)">
    <circle
       style="fill:#1e90ff;stroke-width:0.244935;stroke-linecap:square"
       id="path843-2"
       cx="7.8886356"
       cy="17.576254"
       r="1.0710818" />
    <circle
       style="fill:#1e90ff;stroke-width:0.244935;stroke-linecap:square"
       id="path843-3-9"
       cx="12.392523"
       cy="21.811489"
       r="1.0710818" />
    <circle
       style="fill:#1e90ff;stroke-width:0.244935;stroke-linecap:square"
       id="path843-6-1"
       cx="13.683973"
       cy="16.302364"
       r="1.0710818" />
    <path
       id="path998-2"
       style="color:#000000;fill:#1e90ff;stroke-width:0.617159;-inkscape-stroke:none"
       d="m 13.464184,16.117666 -1.689668,1.341721 a 1.4996319,1.4996319 0 0 1 0.59384,0.570239 l 1.603239,-1.273152 z m -5.0916484,1.235518 -0.28799,0.764146 1.491934,0.56131 a 1.4996319,1.4996319 0 0 1 0.277147,-0.767974 z m 3.5668654,2.653143 a 1.4996319,1.4996319 0 0 1 -0.775628,0.273638 l 0.892355,1.795871 0.731615,-0.363895 z" />
    <circle
       style="fill:#1e90ff;stroke-width:0.244935;stroke-linecap:square"
       id="path843"
       cx="7.8886356"
       cy="7.3327913"
       r="1.0710816" />
    <circle
       style="fill:#1e90ff;stroke-width:0.244935;stroke-linecap:square"
       id="path843-3"
       cx="12.392523"
       cy="11.568024"
       r="1.0710816" />
    <circle
       style="fill:#1e90ff;stroke-width:0.244935;stroke-linecap:square"
       id="path843-6"
       cx="13.683973"
       cy="6.0589008"
       r="1.0710816" />
    <path
       style="fill:none;stroke:#1e90ff;stroke-width:0.816452;stroke-linecap:butt;stroke-linejoin:miter;stroke-miterlimit:4;stroke-dasharray:none;stroke-opacity:1"
       d="M 8.2288236,7.4915606 10.84356,8.4756871 13.717782,6.1935225"
       id="path998"
       sodipodi:nodetypes="ccc" />
    <path
       style="fill:none;stroke:#1e90ff;stroke-width:0.816452;stroke-linecap:butt;stroke-linejoin:miter;stroke-miterlimit:4;stroke-dasharray:none;stroke-opacity:1"
       d="m 10.84356,8.4756871 1.57815,3.1749999"
       id="path1000"
       sodipodi:nodetypes="cc" />
    <path
       sodipodi:type="star"
       style="fill:#1e90ff;stroke:#1e90ff;stroke-width:8;stroke-linecap:round;stroke-linejoin:round;stroke-miterlimit:4;stroke-dasharray:none;stroke-opacity:1"
       id="path15538"
       inkscape:flatsided="true"
       sodipodi:sides="3"
       sodipodi:cx="131.34991"
       sodipodi:cy="105.05824"
       sodipodi:r1="15.003977"
       sodipodi:r2="7.5019884"
       sodipodi:arg1="-1.0471976"
       sodipodi:arg2="0"
       inkscape:rounded="0"
       inkscape:randomized="0"
       d="m 138.8519,92.064417 0,25.987653 -22.50596,-12.99383 z"
       transform="matrix(0.21797509,0,0,0.21797509,-17.027124,5.8654813)"
       inkscape:transform-center-x="0.81762371" />
    <path
       style="fill:none;stroke:#1e90ff;stroke-width:1.32292;stroke-linecap:round;stroke-linejoin:miter;stroke-miterlimit:4;stroke-dasharray:none;stroke-opacity:1"
       d="m 9.0704415,35.86458 v 4.594585"
       id="path17087" />
    <path
       style="fill:none;stroke:#1e90ff;stroke-width:1.32292;stroke-linecap:round;stroke-linejoin:miter;stroke-miterlimit:4;stroke-dasharray:none;stroke-opacity:1"
       d="m 12.50217,35.86458 v 4.594585"
       id="path17350" />
    <path
       id="path17464"
       style="color:#000000;fill:#1e90ff;stroke:#1e90ff;stroke-width:0.264583;stroke-linecap:round;stroke-linejoin:round;stroke-miterlimit:4;stroke-dasharray:none;stroke-opacity:1"
       d="m 10.794101,43.189799 c -1.8039984,0 -3.3304984,1.230591 -3.7832324,2.894913 h 1.109493 c 0.410104,-1.076474 1.448956,-1.836579 2.6737394,-1.836579 1.224786,0 2.263638,0.760105 2.673739,1.836579 h 1.109493 C 14.124599,44.42039 12.598102,43.189799 10.794101,43.189799 Z M 7.0108686,48.1342 c 0.452655,1.664441 1.979147,2.895428 3.7832324,2.895431 1.804085,0 3.330578,-1.23099 3.783232,-2.895431 H 13.46784 c -0.410054,1.076574 -1.448885,1.836579 -2.673739,1.836579 -1.2248544,0 -2.2636854,-0.760005 -2.6737394,-1.836579 z" />
    <path
       sodipodi:type="star"
       style="fill:#f9f9f9;stroke:#1e90ff;stroke-width:1;stroke-linecap:round;stroke-linejoin:round;stroke-miterlimit:4;stroke-dasharray:none;stroke-opacity:1"
       id="path17799"
       inkscape:flatsided="true"
       sodipodi:sides="3"
       sodipodi:cx="119.74275"
       sodipodi:cy="176.74432"
       sodipodi:r1="4.0629759"
       sodipodi:r2="2.0314882"
       sodipodi:arg1="0.52359878"
       sodipodi:arg2="1.5707963"
       inkscape:rounded="0"
       inkscape:randomized="0"
       d="m 123.26139,178.77581 -7.03728,0 3.51864,-6.09446 z"
       transform="matrix(0.2895287,0,0,0.2895287,-26.980722,-3.2856979)"
       inkscape:transform-center-y="-0.29408688" />
    <path
       sodipodi:type="star"
       style="fill:#f9f9f9;stroke:#1e90ff;stroke-width:1;stroke-linecap:round;stroke-linejoin:round;stroke-miterlimit:4;stroke-dasharray:none;stroke-opacity:1"
       id="path18071"
       inkscape:flatsided="true"
       sodipodi:sides="3"
       sodipodi:cx="119.74275"
       sodipodi:cy="176.74432"
       sodipodi:r1="4.0629759"
       sodipodi:r2="2.0314882"
       sodipodi:arg1="0.52359878"
       sodipodi:arg2="1.5707963"
       inkscape:rounded="0"
       inkscape:randomized="0"
       d="m 123.26139,178.77581 -7.03728,0 3.51864,-6.09446 z"
       transform="matrix(0.2895287,0,0,-0.2895287,-20.765208,97.48341)"
       inkscape:transform-center-y="0.294087" />
    <path
       sodipodi:type="star"
       style="fill:#f9f9f9;stroke:#1e90ff;stroke-width:1;stroke-linecap:round;stroke-linejoin:round;stroke-miterlimit:4;stroke-dasharray:none;stroke-opacity:1"
       id="path18071-9"
       inkscape:flatsided="true"
       sodipodi:sides="3"
       sodipodi:cx="119.74275"
       sodipodi:cy="176.74432"
       sodipodi:r1="4.0629759"
       sodipodi:r2="2.0314882"
       sodipodi:arg1="0.52359878"
       sodipodi:arg2="1.5707963"
       inkscape:rounded="0"
       inkscape:randomized="0"
       transform="matrix(0.2895287,0,0,-0.2895287,-20.887505,106.5335)"
       inkscape:transform-center-y="0.294087"
       d="m 123.26139,178.77581 -7.03728,0 3.51864,-6.09446 z" />
    <path
       id="path18113"
       style="color:#000000;fill:#1e90ff;stroke-width:1;stroke-linecap:round;stroke-linejoin:round;-inkscape-stroke:none"
       d="m 10.615787,52.275549 c -2.1857764,0 -3.9687504,1.782971 -3.9687504,3.96875 0,2.185778 1.782974,3.96875 3.9687504,3.96875 1.814031,0 3.350239,-1.228247 3.820441,-2.895431 H 13.35309 c -0.426271,1.094769 -1.487327,1.866035 -2.737303,1.866035 -1.6292864,0 -2.9393544,-1.310066 -2.9393544,-2.939354 0,-1.629289 1.310068,-2.939357 2.9393544,-2.939357 1.249976,0 2.311032,0.771266 2.737303,1.866037 h 1.083138 c -0.470202,-1.667184 -2.00641,-2.89543 -3.820441,-2.89543 z" />
    <path
       style="fill:none;stroke:#1e90ff;stroke-width:0.661458;stroke-linecap:round;stroke-linejoin:round;stroke-miterlimit:4;stroke-dasharray:none;stroke-opacity:1"
       d="m 10.576135,54.894671 v 1.477771 h 1.477771"
       id="path18497" />
    <path
       id="path18730"
       style="fill:#1e90ff;stroke:#1e90ff;stroke-width:0.661458;stroke-linecap:round;stroke-linejoin:round"
       d="m 10.082214,62.804105 v 0.694531 a 2.6545648,2.6545648 0 0 0 -1.0159574,0.538467 l -0.577226,-0.408241 -0.812353,1.149799 0.598414,0.422715 a 2.6545648,2.6545648 0 0 0 -0.143661,0.855244 2.6545648,2.6545648 0 0 0 0.139009,0.841809 l -0.647506,0.418063 0.762746,1.182873 0.670242,-0.431499 a 2.6545648,2.6545648 0 0 0 1.0262924,0.546738 v 0.809252 h 1.408184 v -0.80822 a 2.6545648,2.6545648 0 0 0 0.942063,-0.476457 l 0.650605,0.45992 0.812871,-1.1498 -0.629936,-0.444933 a 2.6545648,2.6545648 0 0 0 0.174665,-0.947746 2.6545648,2.6545648 0 0 0 -0.107487,-0.747241 l 0.6165,-0.39791 -0.763259,-1.182873 -0.593762,0.382921 a 2.6545648,2.6545648 0 0 0 -1.10226,-0.614431 v -0.692981 z m 0.703834,1.531689 a 1.7780522,1.7780529 0 0 1 1.778186,1.778185 1.7780522,1.7780529 0 0 1 -1.778186,1.778188 1.7780522,1.7780529 0 0 1 -1.7776694,-1.778188 1.7780522,1.7780529 0 0 1 1.7776694,-1.778185 z" />
    <path
       id="rect21768"
       style="fill:none;stroke:#1e90ff;stroke-width:0.396875;stroke-linecap:round;stroke-linejoin:round;stroke-miterlimit:4;stroke-dasharray:none;stroke-opacity:1"
       d="m 7.0159696,72.444735 v 7.540672 h 7.5406734 v -6.056102 c -1.746591,-1.46148 0.01106,0.0095 -1.773727,-1.48457 h -1.486534 v 1.792872 c -5.01e-4,0.138814 -0.113524,0.250904 -0.252338,0.250373 H 8.3184046 c -0.138047,-5.03e-4 -0.249819,-0.112325 -0.250373,-0.250373 v -1.792872 z m 1.554774,0 v 1.540534 h 2.2229274 v -1.540534 z"
       sodipodi:nodetypes="ccccccccccccccccc" />
    <rect
       style="fill:none;fill-opacity:1;stroke:#1e90ff;stroke-width:0.396875;stroke-linecap:round;stroke-linejoin:round;stroke-miterlimit:4;stroke-dasharray:none;stroke-opacity:1"
       width="4.5376887"
       height="2.8146079"
       x="8.180563"
       y="76.058418"
       id="rect24900" />
    <path
       style="fill:none;stroke:#1e90ff;stroke-width:0.396875;stroke-linecap:round;stroke-linejoin:round;stroke-miterlimit:4;stroke-dasharray:none;stroke-opacity:1"
       d="M 8.9713436,76.717422 H 11.927471"
       id="path24557" />
    <path
       style="fill:none;stroke:#1e90ff;stroke-width:0.396875;stroke-linecap:round;stroke-linejoin:round;stroke-miterlimit:4;stroke-dasharray:none;stroke-opacity:1"
       d="M 8.9713436,77.437078 H 11.927471"
       id="path24715" />
    <path
       style="fill:none;stroke:#1e90ff;stroke-width:0.396875;stroke-linecap:round;stroke-linejoin:round;stroke-miterlimit:4;stroke-dasharray:none;stroke-opacity:1"
       d="M 8.9713436,78.214022 H 11.927471"
       id="path24717" />
  </g>
</svg>
